:version 1.10
:name ASF
:units
  mass 1
  length 1
  angle deg
:documentation
  ASF file generated by Kaydara
:root
  axis xyz
  order  tx ty tz rx ry rz
  position 0 0 0
  orientation 0 0 0
:bonedata
  begin
    id 1
    name RightUpLegDummy
    direction -1 2.30186e-007 8.31532e-007
    length 4.04083
    axis 0 0 0 xyz
  end
  begin
    id 2
    name RightUpLeg
    direction -0.000919234 -0.999985 0.00544864
    length 17.4221
    axis -3.80308 -0.00076134 -0.0523649 xyz
    dof rx ry rz
  end
  begin
    id 3
    name RightLeg
    direction -0.000919271 -0.999984 -0.00555045
    length 17.1239
    axis 4.00314 0.0181274 -0.183583 xyz
    dof rx ry rz
  end
  begin
    id 4
    name RightFoot
    direction -2.57843e-005 -4.04509e-007 1
    length 6.72091
    axis 8.18909e-005 -0.122003 -0.403008 xyz
    dof rx ry rz
  end
  begin
    id 5
    name RightToes
    direction 0.00116825 -0.014069 0.9999
    length 3.85082
    axis 0.000514414 0.540638 -0.356797 xyz
    dof rx ry rz
  end
  begin
    id 6
    name SpineDummy
    direction 0.0168869 0.966876 -0.254689
    length 6.99894
    axis 0 0 0 xyz
  end
  begin
    id 7
    name Spine
    direction -0.0132008 0.999903 0.00446247
    length 11.1999
    axis -0.00148109 0.00725429 0.756411 xyz
    dof rx ry rz
  end
  begin
    id 8
    name Spine1
    direction 0 0 0
    length 0
    axis -0.000934958 0.0245693 1.46543 xyz
    dof rx ry rz
  end
  begin
    id 9
    name HEadDummy
    direction -0.0255732 0.999672 0.00128215
    length 3.43865
    axis -0.000934958 0.0245693 1.46543 xyz
  end
  begin
    id 10
    name HEad
    direction -0.0472656 0.980052 0.19304
    length 5.12695
    axis -0.000934954 0.0245693 1.46543 xyz
    dof rx ry rz
  end
  begin
    id 11
    name LeftShoulder1Dummy
    direction 0.953098 0.301717 -0.023914
    length 3.68488
    axis -0.000934958 0.0245693 1.46543 xyz
  end
  begin
    id 12
    name LeftShoulder1
    direction 0.962466 0.271167 0.0112566
    length 3.13809
    axis -0.000934958 0.0245693 1.46543 xyz
    dof rx ry rz
  end
  begin
    id 13
    name LeftArm
    direction 0.999943 0.00455037 -0.00961766
    length 11.3419
    axis -23.1648 0.685459 1.22814 xyz
    dof rx ry rz
  end
  begin
    id 14
    name LeftForeArm
    direction 0.999332 0.0131969 0.0340885
    length 8.70632
    axis -9.90633 0.618216 0.0826942 xyz
    dof rx ry rz
  end
  begin
    id 15
    name LeftHand
    direction 0.994373 -0.0366703 0.0993905
    length 5.32135
    axis 0.00675269 0.680415 0.445699 xyz
    dof rx ry rz
  end
  begin
    id 16
    name RightShoulderDummy
    direction -0.967298 0.252589 -0.0230903
    length 3.68488
    axis -0.000934958 0.0245693 1.46543 xyz
  end
  begin
    id 17
    name RightShoulder
    direction -0.975062 0.221602 0.0120823
    length 3.13809
    axis 0.216257 0.0246515 1.45863 xyz
    dof rx ry rz
  end
  begin
    id 18
    name RightArm
    direction -0.99886 -0.00851186 -0.0469687
    length 10.3947
    axis -23.196 0.23503 -0.532632 xyz
    dof rx ry rz
  end
  begin
    id 19
    name RightForeArm
    direction -0.99909 0.00114866 0.0426317
    length 8.68355
    axis -9.91764 -0.134943 0.610517 xyz
    dof rx ry rz
  end
  begin
    id 20
    name RightHand
    direction -0.992888 -0.0489538 0.10852
    length 5.28593
    axis -0.00275396 -0.197403 0.246414 xyz
    dof rx ry rz
  end
  begin
    id 21
    name LeftUpLegDummy
    direction 1 -2.30186e-007 -8.31532e-007
    length 4.04083
    axis 0 0 0 xyz
  end
  begin
    id 22
    name LeftUpLeg
    direction -0.000920097 -1 2.79241e-006
    length 17.4221
    axis -3.48782 0.00143434 -0.0532288 xyz
    dof rx ry rz
  end
  begin
    id 23
    name LeftLeg
    direction -0.000920097 -1 2.7912e-006
    length 17.1239
    axis 3.68162 -0.00806512 -0.0529896 xyz
    dof rx ry rz
  end
  begin
    id 24
    name LeftFoot
    direction -2.57845e-005 -3.987e-007 1
    length 6.72091
    axis 3.02372e-005 -0.00147829 -0.214229 xyz
    dof rx ry rz
  end
  begin
    id 25
    name LeftToes
    direction 0.00813577 -0.00488255 0.999955
    length 3.85048
    axis 3.89895e-005 -0.0014783 -0.214229 xyz
    dof rx ry rz
  end
:hierarchy
  begin
    root RightUpLegDummy SpineDummy LeftUpLegDummy
    RightUpLegDummy RightUpLeg
    RightUpLeg RightLeg
    RightLeg RightFoot
    RightFoot RightToes
    SpineDummy Spine
    Spine Spine1
    Spine1 HEadDummy LeftShoulder1Dummy RightShoulderDummy
    HEadDummy HEad
    LeftShoulder1Dummy LeftShoulder1
    LeftShoulder1 LeftArm
    LeftArm LeftForeArm
    LeftForeArm LeftHand
    RightShoulderDummy RightShoulder
    RightShoulder RightArm
    RightArm RightForeArm
    RightForeArm RightHand
    LeftUpLegDummy LeftUpLeg
    LeftUpLeg LeftLeg
    LeftLeg LeftFoot
    LeftFoot LeftToes
  end

:SAMPLES-PER-SECOND 30
:FULLY-SPECIFIED
:DEGREES
107
root  -21.7929 22.7643 -13.6405 -149.76 -1.44197 179.564
RightUpLeg  -90.7213 -8.64847 6.78922
RightLeg  98.3513 0.353826 -2.69783
RightFoot  -27.0183 0.260304 1.64163
RightToes  -14.7135 -0.0496358 -0.133019
Spine  11.8863 1.94491 -0.0409954
Spine1  20.9692 5.925 -1.94349
HEad  -58.7555 3.83907 -2.739
LeftShoulder1  -1.94126e-019 -3.10601e-018 -2.51263e-017
LeftArm  -5.3405 -25.2318 -59.9562
LeftForeArm  26.2244 -28.1015 -4.52875
LeftHand  -0.361844 -2.04988 5.8388
RightShoulder  -4.96962e-017 0 -2.36833e-017
RightArm  -5.98681 25.5894 51.0452
RightForeArm  47.3668 29.4563 3.75409
RightHand  -0.273578 -0.462841 -6.43479
LeftUpLeg  -90.8541 13.3003 -2.61956
LeftLeg  97.7659 -0.0998281 1.51498
LeftFoot  -23.7415 -0.171708 -0.655354
LeftToes  -23.9872 2.03064e-006 1.83538e-008
108
root  -21.8591 21.5913 -13.7395 -150.753 -1.34084 179.51
RightUpLeg  -92.8067 -8.59294 6.72281
RightLeg  103.504 0.738287 -3.41203
RightFoot  -28.8768 0.403749 2.13064
RightToes  -13.4316 -0.0479469 -0.12203
Spine  12.189 1.92432 0.144108
Spine1  21.4546 5.86357 -1.59818
HEad  -58.9122 3.70248 -2.54181
LeftShoulder1  -1.94126e-019 -3.10601e-018 -2.51263e-017
LeftArm  -4.3457 -26.6607 -58.0829
LeftForeArm  26.2178 -28.6187 -4.64287
LeftHand  -0.36403 -2.02524 5.89063
RightShoulder  -4.96962e-017 0 -2.36833e-017
RightArm  -5.79814 26.6341 49.2509
RightForeArm  47.3574 30.3895 3.95238
RightHand  -0.267196 -0.373276 -6.18074
LeftUpLeg  -92.7275 13.5725 -2.59915
LeftLeg  102.789 -0.244997 1.58004
LeftFoot  -25.8572 -0.212026 -0.762104
LeftToes  -23.6534 2.03064e-006 1.83538e-008
109
root  -21.9174 20.4109 -13.8412 -151.859 -1.31447 179.558
RightUpLeg  -94.5158 -8.30934 6.36316
RightLeg  108.378 1.20176 -3.96098
RightFoot  -30.7944 0.56342 2.61207
RightToes  -13.0969 -0.0465638 -0.119138
Spine  12.5904 1.91917 0.340201
Spine1  22.0932 5.85729 -1.2693
HEad  -59.0789 3.65717 -2.17905
LeftShoulder1  -1.94126e-019 -3.10601e-018 -2.51263e-017
LeftArm  -3.84562 -28.3571 -56.206
LeftForeArm  26.1438 -29.422 -4.82588
LeftHand  -0.376365 -1.83178 6.23215
RightShoulder  -4.96962e-017 0 -2.36833e-017
RightArm  -6.09365 27.9455 47.6069
RightForeArm  47.6165 31.1606 4.10612
RightHand  -0.291555 -0.284151 -6.63875
LeftUpLeg  -94.4543 13.7398 -2.32224
LeftLeg  107.693 -0.418284 1.70908
LeftFoot  -27.9619 -0.269896 -0.922485
LeftToes  -22.6325 2.03064e-006 1.83538e-008
110
root  -21.985 19.2278 -13.9369 -152.958 -1.36848 179.608
RightUpLeg  -96.0956 -8.14897 6.01323
RightLeg  113.015 1.66027 -4.22152
RightFoot  -32.8067 0.717139 3.0046
RightToes  -12.8145 -0.0451254 -0.116691
Spine  13.0253 1.88329 0.519654
Spine1  22.7637 5.77644 -0.958687
HEad  -58.9776 3.48533 -1.7304
LeftShoulder1  -1.94126e-019 -3.10601e-018 -2.51263e-017
LeftArm  -3.94618 -30.3258 -54.4503
LeftForeArm  25.9421 -30.1828 -5.00922
LeftHand  -0.377771 -1.78478 6.29214
RightShoulder  -4.96962e-017 0 -2.36833e-017
RightArm  -6.94194 29.499 46.185
RightForeArm  47.456 31.7322 4.23853
RightHand  -0.30441 -0.24393 -6.88232
LeftUpLeg  -96.1821 13.6312 -1.87846
LeftLeg  112.47 -0.671279 1.99685
LeftFoot  -29.829 -0.359049 -1.18646
LeftToes  -21.8232 2.03064e-006 1.83538e-008
111
root  -22.0623 18.0403 -14.0462 -154.058 -1.67795 179.607
RightUpLeg  -97.6339 -8.2672 5.69571
RightLeg  117.587 2.18377 -4.48111
RightFoot  -34.8506 0.905962 3.45752
RightToes  -12.381 -0.0431779 -0.113015
Spine  13.4516 1.77115 0.736403
Spine1  23.4059 5.50755 -0.566251
HEad  -58.8539 3.08852 -1.16826
LeftShoulder1  -1.94126e-019 -3.10601e-018 -2.51263e-017
LeftArm  -4.24675 -32.5628 -52.9434
LeftForeArm  26.1284 -30.6378 -5.10321
LeftHand  -0.378521 -1.98474 6.09623
RightShoulder  -4.96962e-017 0 -2.36833e-017
RightArm  -8.01095 31.2316 44.7869
RightForeArm  47.1687 32.0794 4.32893
RightHand  -0.303042 0.0314112 -6.53016
LeftUpLeg  -97.9048 13.2795 -1.438
LeftLeg  117.095 -0.95421 2.22162
LeftFoot  -31.6025 -0.457734 -1.45585
LeftToes  -20.955 2.03064e-006 1.83538e-008
112
root  -22.1267 16.8458 -14.1691 -155.181 -1.97665 179.671
RightUpLeg  -99.1007 -8.36915 5.42872
RightLeg  122.095 2.69687 -4.58244
RightFoot  -36.8428 1.09787 3.86922
RightToes  -12.0296 -0.0421899 -0.109859
Spine  13.8818 1.66366 0.944681
Spine1  24.0375 5.22772 -0.169751
HEad  -58.6047 2.66382 -0.512822
LeftShoulder1  -1.94126e-019 -3.10601e-018 -2.51263e-017
LeftArm  -4.58835 -35.1147 -51.5365
LeftForeArm  26.5842 -30.6557 -5.08201
LeftHand  -0.375828 -2.16134 5.97625
RightShoulder  -4.96962e-017 0 -2.36833e-017
RightArm  -8.86381 33.372 43.4793
RightForeArm  47.3884 31.9639 4.29277
RightHand  -0.274841 -0.152293 -6.11268
LeftUpLeg  -99.6194 13.1946 -1.01518
LeftLeg  121.665 -1.17494 2.22564
LeftFoot  -33.1738 -0.533249 -1.62859
LeftToes  -20.1444 2.03064e-006 1.83538e-008
113
root  -22.1836 15.654 -14.3135 -156.375 -2.22374 179.888
RightUpLeg  -100.568 -8.4342 5.39427
RightLeg  126.53 3.27201 -4.69488
RightFoot  -38.4947 1.30491 4.31251
RightToes  -11.9879 -0.0418752 -0.109495
Spine  14.3474 1.58633 1.13443
Spine1  24.6989 5.04863 0.143671
HEad  -58.2929 2.32735 0.288311
LeftShoulder1  -1.94126e-019 -3.10601e-018 -2.51263e-017
LeftArm  -4.67204 -38.1845 -49.7817
LeftForeArm  28.1906 -30.1012 -4.86689
LeftHand  -0.378704 -2.56306 5.7449
RightShoulder  -4.96962e-017 0 -2.36833e-017
RightArm  -10.1002 35.9761 42.3504
RightForeArm  48.2579 31.0089 4.04281
RightHand  -0.287371 0.506084 -5.73851
LeftUpLeg  -101.423 13.4763 -0.712507
LeftLeg  126.201 -1.29618 2.04501
LeftFoot  -34.7136 -0.587333 -1.71747
LeftToes  -18.9715 2.03064e-006 1.83538e-008
114
root  -22.2405 14.4912 -14.4711 -157.565 -2.44933 -179.847
RightUpLeg  -101.974 -8.53283 5.44468
RightLeg  130.787 3.83456 -4.71745
RightFoot  -40.0065 1.51533 4.73987
RightToes  -11.4827 -0.0419068 -0.10811
Spine  14.7849 1.4849 1.29681
Spine1  25.2663 4.79335 0.437965
HEad  -57.7561 1.97112 0.809596
LeftShoulder1  -1.94126e-019 -3.10601e-018 -2.51263e-017
LeftArm  -4.68981 -41.4072 -47.675
LeftForeArm  29.8222 -29.2557 -4.58893
LeftHand  -0.375231 -3.19264 5.31844
RightShoulder  -4.96962e-017 0 -2.36833e-017
RightArm  -11.1263 38.8443 41.073
RightForeArm  49.462 29.9304 3.75659
RightHand  -0.310553 1.27419 -5.54632
LeftUpLeg  -103.1 13.8902 -0.336456
LeftLeg  130.531 -1.23849 1.66298
LeftFoot  -36.2616 -0.603508 -1.68142
LeftToes  -18.2171 2.03064e-006 1.83538e-008
